<svg width="160" height="217" viewBox="0 0 160 217" fill="none" xmlns="http://www.w3.org/2000/svg">
<ellipse cx="-86.5" cy="5" rx="202.5" ry="212" fill="#DD0000" fill-opacity="0.76"/>
<path d="M17.1019 161.964H7.82227V171.525H17.1019V161.964Z" fill="white" fill-opacity="0.18"/>
<path d="M20.0849 133.561H25.062V124H20.0849H15.0928V133.561H20.0849Z" fill="white" fill-opacity="0.18"/>
<path d="M61.8519 104.492H52.5723V114.053H61.8519V104.492Z" fill="white" fill-opacity="0.18"/>
<path d="M71.1312 -0.690186H61.8516V8.87047H71.1312V-0.690186Z" fill="white" fill-opacity="0.18"/>
<path d="M15.4382 75.8105V66.2498H24.7179V56.6892H15.4382V47.1285H6.15857V56.6892H-3.12109V66.2498H6.15857V75.8105V85.3712V94.9318V104.492H15.4382V94.9318V85.3712H24.7179V75.8105H15.4382Z" fill="white" fill-opacity="0.18"/>
<path d="M61.8519 171.432H71.1316V161.872H61.8519H52.5723V171.432H61.8519Z" fill="white" fill-opacity="0.18"/>
<path d="M52.5717 -0.690186H43.292V8.87047H52.5717V-0.690186Z" fill="white" fill-opacity="0.18"/>
<path d="M43.1777 75.6598V66.3265H37.1777V56.9932H31.1777V66.3265V75.6598H25.1777V84.9932H31.1777H37.1777V75.6598H43.1777Z" fill="white" fill-opacity="0.18"/>
<path d="M102.628 56.6893H93.3486V66.25H102.628V56.6893Z" fill="white" fill-opacity="0.18"/>
<path d="M6.4281 104.492H-2.85156V114.053H6.4281V104.492Z" fill="white" fill-opacity="0.18"/>
<path d="M43.2921 47.1286V37.568H52.5717V27.9919H61.8514H71.1311V18.4313H61.8514V8.87061H52.5717V18.4313H43.2921V27.9919H33.9974V37.568H24.7178V47.1286H33.9974H43.2921Z" fill="white" fill-opacity="0.18"/>
<path d="M43.2921 114.069V104.493H52.5717V94.9319H43.2921H33.9974V104.493H24.7178V114.069H33.9974H43.2921Z" fill="white" fill-opacity="0.18"/>
<path d="M71.1304 152.311V142.735H61.8508H52.5711V133.174H43.2915V142.735H33.9968V152.311H24.7172H15.4375V161.872H24.7172H33.9968H43.2915V152.311H52.5711V161.872H61.8508V152.311H71.1304Z" fill="white" fill-opacity="0.18"/>
<path d="M33.9971 8.87047V-0.690186H24.7175H15.4379V8.87047H6.1582V18.4311H15.4379H24.7175V8.87047H33.9971Z" fill="white" fill-opacity="0.18"/>
<path d="M33.9974 18.4314H24.7178V27.992H33.9974V18.4314Z" fill="white" fill-opacity="0.18"/>
<path d="M57.2045 56.6888H47.9248V66.2494V75.8101V85.3708H57.2045H66.4841V75.8101H57.2045V66.2494H66.4841V56.6888H75.7638V47.1281H66.4841V37.5675H57.2045V47.1281V56.6888Z" fill="white" fill-opacity="0.18"/>
<path d="M24.7172 27.9917H15.4375V37.5524H24.7172V27.9917Z" fill="white" fill-opacity="0.18"/>
<path d="M52.5723 123.629V133.19H61.8519H71.1316V123.629H80.4113H89.6909V114.069H80.4113H71.1316H61.8519V123.629H52.5723Z" fill="white" fill-opacity="0.18"/>
<path d="M102.628 85.371H93.3486V94.9316H102.628V85.371Z" fill="white" fill-opacity="0.18"/>
<path d="M71.1312 94.9319H61.8516V104.493H71.1312V94.9319Z" fill="white" fill-opacity="0.18"/>
<path d="M94.338 66.2495H85.0583H75.7637V75.8102H85.0583V85.3708H94.338V75.8102V66.2495Z" fill="white" fill-opacity="0.18"/>
<path d="M89.6898 94.9319H80.4102V104.493H89.6898V94.9319Z" fill="white" fill-opacity="0.18"/>
<path d="M-24.2629 158.437H3.59102V119.993H-33.7225V129.569H-42.8223V139.13H-33.7225V148.691H-42.8223V158.251H-33.7225V158.437H-33.5426V167.812L-42.8223 158.437V161.493L-33.5426 165.993H-28.8223L-24.2629 167.812V158.437ZM-3.55985 127.345V151.254H-26.7665V127.345H-3.55985Z" fill="white" fill-opacity="0.18"/>
<path d="M140.559 75.8108H149.838V66.2501V56.6895H140.559V66.2501V75.8108Z" fill="white" fill-opacity="0.18"/>
<path d="M34.3572 124H25.0625V133.561V143.121H34.3572V133.561V124Z" fill="white" fill-opacity="0.18"/>
<path d="M159.134 94.9315V85.3708H149.839V94.9315V104.492H159.134V94.9315Z" fill="white" fill-opacity="0.18"/>
<path d="M126.825 47.1285V-0.751953H80.3516V47.1285H126.825ZM87.3675 39.9465V6.47647H119.854V39.9465H87.3675Z" fill="white" fill-opacity="0.18"/>
<path d="M112.897 13.6584H94.3379V32.7798H112.897V13.6584Z" fill="white" fill-opacity="0.18"/>
<path d="M112.897 147.523H94.3379V166.644H112.897V147.523Z" fill="white" fill-opacity="0.18"/>
</svg>
