<svg width="53" height="53" viewBox="0 0 53 53" fill="none" xmlns="http://www.w3.org/2000/svg">
<circle cx="3" cy="3" r="3" fill="black"/>
<circle cx="3" cy="10" r="3" fill="black"/>
<circle cx="3" cy="17" r="3" fill="black"/>
<circle cx="10" cy="10" r="3" fill="black"/>
<circle cx="17" cy="10" r="3" fill="black"/>
<circle cx="24" cy="10" r="3" fill="black"/>
<circle cx="31" cy="10" r="3" fill="black"/>
<circle cx="24" cy="17" r="3" fill="black"/>
<circle cx="31" cy="23" r="3" fill="black"/>
<circle cx="17" cy="3" r="3" fill="black"/>
<circle cx="17" cy="23" r="3" fill="black"/>
<circle cx="17" cy="30" r="3" fill="black"/>
<circle cx="17" cy="37" r="3" fill="black"/>
<circle cx="17" cy="44" r="3" fill="black"/>
<circle cx="10" cy="50" r="3" fill="black"/>
<circle cx="3" cy="43" r="3" fill="black"/>
<circle cx="3" cy="30" r="3" fill="black"/>
<circle cx="10" cy="30" r="3" fill="black"/>
<circle cx="29" cy="30" r="3" fill="black"/>
<circle cx="36" cy="30" r="3" fill="black"/>
<circle cx="43" cy="30" r="3" fill="black"/>
<circle cx="50" cy="23" r="3" fill="black"/>
<circle cx="43" cy="17" r="3" fill="black"/>
<circle cx="43" cy="10" r="3" fill="black"/>
<circle cx="50" cy="10" r="3" fill="black"/>
<circle cx="50" cy="3" r="3" fill="black"/>
<circle cx="29" cy="43" r="3" fill="black"/>
<circle cx="23" cy="50" r="3" fill="black"/>
<circle cx="50" cy="50" r="3" fill="black"/>
<circle cx="50" cy="43" r="3" fill="black"/>
<circle cx="43" cy="43" r="3" fill="black"/>
</svg>
