<svg width="55" height="54" viewBox="0 0 55 54" fill="none" xmlns="http://www.w3.org/2000/svg">
<rect width="6" height="6" fill="black"/>
<rect y="7" width="6" height="6" fill="black"/>
<rect y="14" width="6" height="6" fill="black"/>
<rect x="7" y="7" width="6" height="6" fill="black"/>
<rect x="14" y="7" width="6" height="6" fill="black"/>
<rect x="21" y="7" width="6" height="6" fill="black"/>
<rect x="21" y="14" width="6" height="6" fill="black"/>
<rect y="27" width="6" height="6" fill="black"/>
<rect x="7" y="27" width="6" height="6" fill="black"/>
<rect x="14" y="27" width="6" height="6" fill="black"/>
<rect x="14" y="20" width="6" height="6" fill="black"/>
<rect x="28" y="7" width="6" height="6" fill="black"/>
<rect x="42" y="7" width="6" height="6" fill="black"/>
<rect x="42" y="14" width="6" height="6" fill="black"/>
<rect x="49" y="20" width="6" height="6" fill="black"/>
<rect x="28" y="20" width="6" height="6" fill="black"/>
<rect x="28" y="27" width="6" height="6" fill="black"/>
<rect x="35" y="27" width="6" height="6" fill="black"/>
<rect x="42" y="27" width="6" height="6" fill="black"/>
<rect y="41" width="6" height="6" fill="black"/>
<rect x="7" y="48" width="6" height="6" fill="black"/>
<rect x="21" y="48" width="6" height="6" fill="black"/>
<rect x="14" y="34" width="6" height="6" fill="black"/>
<rect x="14" y="41" width="6" height="6" fill="black"/>
<rect x="28" y="41" width="6" height="6" fill="black"/>
<rect x="42" y="41" width="6" height="6" fill="black"/>
<rect x="49" y="41" width="6" height="6" fill="black"/>
<rect x="49" y="48" width="6" height="6" fill="black"/>
<rect x="49" y="7" width="6" height="6" fill="black"/>
<rect x="49" width="6" height="6" fill="black"/>
<rect x="14" width="6" height="6" fill="black"/>
</svg>
