<svg width="623" height="604" viewBox="0 0 623 604" fill="none" xmlns="http://www.w3.org/2000/svg">
<path d="M311.411 604C483.399 604 622.822 523.503 622.822 424.206C622.822 324.909 483.399 244.412 311.411 244.412C139.423 244.412 0 324.909 0 424.206C0 523.503 139.423 604 311.411 604Z" fill="#F0F0F0"/>
<path d="M490.253 486.592C469.832 474.802 469.832 455.69 490.253 443.9C510.674 432.11 543.783 432.11 564.203 443.9C584.624 455.69 584.624 474.802 564.203 486.592C543.783 498.381 510.674 498.381 490.253 486.592Z" fill="#E0E0E0"/>
<path d="M74.9146 488.231L21.1997 457.223C18.173 455.478 18.173 452.637 21.1997 450.892L333.642 270.503C335.34 269.643 337.217 269.194 339.12 269.194C341.024 269.194 342.901 269.643 344.599 270.503L398.327 301.511C401.354 303.255 401.354 306.097 398.327 307.842L85.8849 488.231C84.1845 489.091 82.3055 489.54 80.3997 489.54C78.4939 489.54 76.6149 489.091 74.9146 488.231Z" fill="#E0E0E0"/>
<path d="M267.989 432.956L314.17 406.257C318.928 403.508 321.307 399.913 321.307 396.304C321.307 392.696 321.307 389.881 321.307 389.881L273.408 362.865C272.07 362 270.956 360.83 270.157 359.452C269.357 358.073 268.895 356.525 268.809 354.934V297.981L188.184 344.585V401.512C188.276 403.102 188.741 404.647 189.54 406.024C190.339 407.402 191.45 408.572 192.783 409.442L233.545 432.916C243.035 438.454 258.473 438.454 267.989 432.956Z" fill="#FFD255"/>
<g opacity="0.6">
<path d="M267.99 432.956L314.171 406.257C318.929 403.508 321.308 399.913 321.308 396.304C321.308 392.696 321.308 389.881 321.308 389.881L273.409 362.865C272.071 362 270.957 360.83 270.158 359.452C269.358 358.073 268.896 356.525 268.81 354.934V297.981L188.185 344.585V401.512C188.277 403.102 188.742 404.647 189.541 406.024C190.34 407.402 191.451 408.572 192.784 409.442L233.546 432.916C243.036 438.454 258.474 438.454 267.99 432.956Z" fill="black"/>
</g>
<path opacity="0.3" d="M207.522 411.597V417.994L192.746 409.469C191.412 408.6 190.302 407.429 189.505 406.051C188.709 404.674 188.247 403.128 188.159 401.539V344.586L203.518 335.717C203.835 339.616 204.178 343.647 204.509 347.612L193.71 353.824V398.3C193.796 399.892 194.257 401.44 195.057 402.818C195.856 404.197 196.971 405.366 198.31 406.231L207.522 411.597Z" fill="black"/>
<path d="M193.71 398.313C193.801 399.903 194.264 401.449 195.063 402.827C195.863 404.204 196.975 405.375 198.31 406.243L233.494 426.518C243.01 432.004 258.448 432.017 267.978 426.518L314.238 399.82C323.767 394.321 323.767 385.413 314.238 379.914L279.027 359.639C277.695 358.769 276.586 357.597 275.79 356.22C274.993 354.843 274.531 353.298 274.441 351.709V307.22L193.816 353.824L193.71 398.313Z" fill="#FFD255"/>
<path opacity="0.3" d="M193.71 398.313C193.801 399.903 194.264 401.449 195.063 402.827C195.863 404.204 196.975 405.375 198.31 406.243L233.494 426.518C243.01 432.004 258.448 432.017 267.978 426.518L314.238 399.82C323.767 394.321 323.767 385.413 314.238 379.914L279.027 359.639C277.695 358.769 276.586 357.597 275.79 356.22C274.993 354.843 274.531 353.298 274.441 351.709V307.22L193.816 353.824L193.71 398.313Z" fill="black"/>
<path opacity="0.5" d="M288.344 365.072L278.973 359.666C277.641 358.795 276.532 357.624 275.736 356.247C274.939 354.869 274.477 353.324 274.387 351.735V307.22L193.762 353.824V398.313C193.853 399.903 194.316 401.449 195.115 402.827C195.914 404.204 197.026 405.375 198.361 406.243L207.613 411.53L288.344 365.072Z" fill="black"/>
<path d="M321.322 389.894V396.317C321.322 399.925 318.929 403.507 314.184 406.27L267.924 432.955C262.862 435.658 257.207 437.061 251.469 437.039V430.642C257.207 430.664 262.862 429.26 267.924 426.558L314.184 399.846C318.929 397.11 321.322 393.502 321.322 389.894Z" fill="#FFD255"/>
<path opacity="0.5" d="M321.322 389.894V396.317C321.322 399.925 318.929 403.507 314.184 406.27L267.924 432.955C262.862 435.658 257.207 437.061 251.469 437.039V430.642C257.207 430.664 262.862 429.26 267.924 426.558L314.184 399.846C318.929 397.11 321.322 393.502 321.322 389.894Z" fill="black"/>
<path d="M64.1804 453.601C65.9234 454.443 67.8398 454.864 69.7751 454.829C71.7105 454.795 73.6106 454.306 75.3226 453.403L387.249 273.318C388.922 272.227 390.314 270.758 391.313 269.029C392.312 267.3 392.889 265.36 392.999 263.366V11.0223C392.939 9.08253 392.422 7.18429 391.489 5.4823C390.557 3.78031 389.235 2.32274 387.632 1.22836C385.892 0.38557 383.976 -0.0345272 382.043 0.00221899C380.109 0.0389652 378.211 0.531517 376.504 1.43983L64.577 181.577C62.9102 182.675 61.5266 184.151 60.5389 185.886C59.5512 187.62 58.9874 189.563 58.8936 191.556V443.86C58.9525 445.784 59.4615 447.667 60.3796 449.359C61.2977 451.05 62.5995 452.503 64.1804 453.601Z" fill="#FFD255"/>
<path d="M75.3628 453.39L387.289 273.305C388.964 272.217 390.358 270.748 391.357 269.018C392.356 267.289 392.932 265.348 393.039 263.353V11.0229C393.039 7.36168 390.461 5.86813 387.289 7.70533L75.3628 187.79C73.6895 188.88 72.2968 190.35 71.2979 192.079C70.2989 193.808 69.7217 195.748 69.6133 197.743V450.073C69.6133 453.734 72.1906 455.227 75.3628 453.39Z" fill="#FFD255"/>
<path opacity="0.5" d="M75.3628 453.39L387.289 273.305C388.964 272.217 390.358 270.748 391.357 269.018C392.356 267.289 392.932 265.348 393.039 263.353V11.0229C393.039 7.36168 390.461 5.86813 387.289 7.70533L75.3628 187.79C73.6895 188.88 72.2968 190.35 71.2979 192.079C70.2989 193.808 69.7217 195.748 69.6133 197.743V450.073C69.6133 453.734 72.1906 455.227 75.3628 453.39Z" fill="black"/>
<path d="M74.5163 459.946C72.8806 460.66 71.1096 461.01 69.3252 460.974C67.5408 460.937 65.7856 460.514 64.1804 459.734C62.5959 458.634 61.292 457.177 60.3737 455.48C59.4554 453.784 58.9484 451.895 58.8936 449.967V426.995L69.6656 433.234V456.205C69.5995 459.549 71.7275 461.069 74.5163 459.946Z" fill="#FFD255"/>
<path opacity="0.5" d="M74.5163 459.946C72.8806 460.66 71.1096 461.01 69.3252 460.974C67.5408 460.937 65.7856 460.514 64.1804 459.734C62.5959 458.634 61.292 457.177 60.3737 455.48C59.4554 453.784 58.9484 451.895 58.8936 449.967V426.995L69.6656 433.234V456.205C69.5995 459.549 71.7275 461.069 74.5163 459.946Z" fill="black"/>
<path d="M69.5996 433.234V456.205C69.5996 459.866 72.2431 461.347 75.3491 459.523L387.276 279.438C388.941 278.352 390.329 276.891 391.328 275.172C392.326 273.452 392.908 271.523 393.025 269.538V246.461L69.5996 433.234Z" fill="#FFD255"/>
<path opacity="0.3" d="M69.6133 433.181V456.205C69.6133 459.866 72.2567 461.347 75.3628 459.523L387.289 279.438C388.952 278.351 390.338 276.889 391.334 275.17C392.33 273.451 392.909 271.522 393.026 269.538V246.461L69.6133 433.181Z" fill="black"/>
<path d="M80.3838 404.354V201.324C80.4453 200.128 80.7887 198.963 81.3859 197.925C81.9831 196.887 82.8172 196.004 83.8203 195.35L378.749 25.0195C380.653 23.9225 382.199 24.808 382.199 27.0021V230.138C382.135 231.335 381.789 232.5 381.19 233.538C380.59 234.576 379.754 235.458 378.749 236.112L83.8335 406.403C81.9302 407.5 80.3838 406.601 80.3838 404.354Z" fill="#FFD255"/>
<path d="M80.3838 404.354V201.324C80.4453 200.128 80.7887 198.963 81.3859 197.925C81.9831 196.887 82.8172 196.004 83.8203 195.35L378.749 25.0195C380.653 23.9225 382.199 24.808 382.199 27.0021V230.138C382.135 231.335 381.789 232.5 381.19 233.538C380.59 234.576 379.754 235.458 378.749 236.112L83.8335 406.403C81.9302 407.5 80.3838 406.601 80.3838 404.354Z" fill="#263238"/>
<path d="M231.312 347.163C229.742 348.184 228.435 349.561 227.498 351.183C226.561 352.804 226.02 354.624 225.919 356.494C225.919 359.931 228.338 361.332 231.312 359.613C232.883 358.591 234.191 357.212 235.128 355.588C236.065 353.964 236.605 352.141 236.704 350.269C236.704 346.832 234.285 345.445 231.312 347.163Z" fill="#FFD255"/>
<path opacity="0.7" d="M71.3045 192.059C70.2802 193.781 69.6947 195.728 69.5995 197.729V433.233L58.8936 426.995V191.556C58.9629 189.549 59.5453 187.592 60.5854 185.873L71.3045 192.059Z" fill="black"/>
<path opacity="0.3" d="M392.972 10.0707C392.562 7.11003 390.17 6.10553 387.275 7.70481L75.3488 187.79C73.6576 188.847 72.2616 190.316 71.2911 192.059L60.5059 185.833C61.4829 184.091 62.8829 182.623 64.5768 181.564L376.503 1.49271C378.213 0.584271 380.113 0.0916959 382.049 0.0549529C383.985 0.0182098 385.902 0.438334 387.645 1.28124C389.111 2.27961 390.345 3.58098 391.263 5.09735C392.182 6.61371 392.765 8.30972 392.972 10.0707Z" fill="black"/>
<path d="M409.804 41.1323C409.341 40.8998 408.823 40.7979 408.306 40.8374C407.789 40.877 407.292 41.0566 406.87 41.357L112.549 211.383C111.387 212.152 110.423 213.183 109.734 214.393C109.045 215.603 108.651 216.958 108.583 218.349V420.136C108.542 420.817 108.677 421.498 108.976 422.111C109.275 422.725 109.727 423.251 110.288 423.639C110.936 423.996 114.399 426.005 115.43 426.56C115.795 426.746 116.202 426.831 116.611 426.808C117.02 426.785 117.415 426.654 117.756 426.428L412.011 256.401C413.173 255.633 414.137 254.602 414.826 253.392C415.514 252.182 415.909 250.827 415.976 249.436V46.6042C416.036 46.0917 415.951 45.5728 415.731 45.1058C415.512 44.6389 415.166 44.2424 414.734 43.9608C414.073 43.5246 410.544 41.5684 409.804 41.1323Z" fill="#FFD255"/>
<path d="M117.689 214.238L412.023 44.2775C414.244 42.9557 415.988 44.0396 415.988 46.6037V249.435C415.921 250.826 415.526 252.181 414.838 253.391C414.149 254.602 413.185 255.633 412.023 256.401L117.689 426.427C115.468 427.749 113.724 425.621 113.724 423.057V221.203C113.793 219.813 114.189 218.458 114.877 217.249C115.566 216.039 116.529 215.008 117.689 214.238Z" fill="#FAFAFA"/>
<path d="M413.821 45.0444C414.601 45.0444 414.72 46.0225 414.72 46.604V249.436C414.648 250.6 414.307 251.732 413.722 252.742C413.137 253.751 412.324 254.61 411.349 255.251L117.054 425.278C116.857 425.406 116.629 425.479 116.394 425.489C115.653 425.489 115.072 424.352 115.072 423.057V221.204C115.136 220.039 115.467 218.905 116.04 217.89C116.613 216.874 117.412 216.005 118.376 215.348L412.684 45.4145C413.025 45.1947 413.416 45.0672 413.821 45.0444ZM413.821 43.7227C413.184 43.7498 412.565 43.941 412.023 44.2778L117.689 214.238C116.529 215.008 115.566 216.039 114.877 217.249C114.189 218.459 113.793 219.813 113.724 221.204V423.057C113.724 425.093 114.86 426.811 116.367 426.811C116.834 426.802 117.29 426.67 117.689 426.427L412.01 256.401C413.171 255.633 414.135 254.602 414.824 253.392C415.513 252.182 415.907 250.826 415.975 249.436V46.604C415.975 44.78 415.076 43.7227 413.755 43.7227H413.821Z" fill="#E0E0E0"/>
<path d="M110.208 423.639C110.645 423.864 113.777 425.648 115.152 426.441C114.658 426.032 114.267 425.513 114.01 424.925C113.753 424.337 113.637 423.698 113.671 423.058V234.382L108.517 231.368V420.137C108.474 420.817 108.607 421.496 108.903 422.11C109.2 422.723 109.649 423.25 110.208 423.639Z" fill="#F0F0F0"/>
<path d="M416.041 46.5647C416.041 44.027 414.23 42.996 412.076 44.2781L117.689 214.238C116.529 215.008 115.566 216.039 114.877 217.249C114.189 218.459 113.793 219.814 113.724 221.204V234.421L416.041 59.7819V46.5647Z" fill="#FFD255"/>
<g opacity="0.4">
<path d="M412.023 44.278L117.689 214.225C116.507 214.97 115.534 216.002 114.86 217.225L109.745 214.251C110.418 213.071 111.383 212.084 112.547 211.383L406.868 41.3569C407.29 41.0545 407.785 40.8725 408.302 40.8306C408.819 40.7887 409.338 40.8884 409.803 41.119C410.516 41.5684 413.86 43.4585 414.719 43.9211C414.275 43.7563 413.797 43.7026 413.327 43.7648C412.857 43.827 412.409 44.0032 412.023 44.278Z" fill="white"/>
</g>
<path opacity="0.15" d="M108.518 231.381V218.282C108.572 216.855 108.995 215.466 109.747 214.251L114.875 217.212C114.134 218.406 113.72 219.773 113.672 221.177V234.394L108.518 231.381Z" fill="black"/>
<path d="M353.973 198.72L177.695 300.493C176.837 301.049 176.124 301.8 175.611 302.684C175.099 303.568 174.803 304.561 174.747 305.581V356.124C174.803 357.144 175.099 358.137 175.611 359.021C176.124 359.906 176.837 360.656 177.695 361.213L182.836 364.173C183.75 364.635 184.759 364.876 185.783 364.876C186.807 364.876 187.817 364.635 188.731 364.173L364.983 262.401C365.84 261.841 366.554 261.088 367.066 260.202C367.578 259.315 367.874 258.321 367.93 257.299V206.743C367.874 205.722 367.578 204.73 367.066 203.845C366.554 202.961 365.84 202.21 364.983 201.654L359.828 198.694C358.918 198.239 357.914 198.004 356.897 198.009C355.88 198.013 354.878 198.257 353.973 198.72Z" fill="#FFD255"/>
<path opacity="0.5" d="M367.929 206.294C367.717 204.774 366.488 204.219 365.008 205.078L188.73 306.851C187.86 307.391 187.145 308.147 186.655 309.045L175.618 302.674C176.113 301.79 176.822 301.045 177.68 300.507L353.971 198.734C354.883 198.271 355.89 198.029 356.912 198.029C357.934 198.029 358.942 198.271 359.853 198.734L365.008 201.695C365.794 202.209 366.461 202.886 366.964 203.679C367.468 204.472 367.797 205.364 367.929 206.294Z" fill="white"/>
<path d="M188.229 364.425C187.366 364.765 186.44 364.919 185.514 364.878C184.587 364.838 183.679 364.602 182.849 364.187L177.695 361.226C176.839 360.668 176.126 359.917 175.614 359.033C175.102 358.149 174.805 357.157 174.747 356.137V305.595C174.787 304.563 175.087 303.558 175.619 302.674L186.656 309.045C186.119 309.918 185.819 310.915 185.783 311.939V362.495C185.783 364.174 186.841 364.953 188.229 364.425Z" fill="#263238"/>
<path d="M188.73 306.851L365.008 205.078C366.633 204.14 367.955 204.893 367.955 206.77V257.326C367.899 258.348 367.603 259.343 367.091 260.229C366.579 261.115 365.865 261.869 365.008 262.428L188.756 364.2C187.13 365.139 185.809 364.372 185.809 362.495V311.953C185.862 310.933 186.154 309.94 186.661 309.054C187.168 308.167 187.877 307.413 188.73 306.851Z" fill="#E53D3D"/>
<path d="M307.236 225.71L177.707 300.506C176.849 301.044 176.14 301.79 175.646 302.674L186.682 309.045C187.173 308.147 187.888 307.391 188.757 306.851L318.286 232.067L307.236 225.71Z" fill="#455A64"/>
<path d="M318.26 232.068L188.732 306.851C187.874 307.411 187.16 308.164 186.648 309.05C186.136 309.937 185.84 310.931 185.784 311.953V362.483C185.784 364.36 187.106 365.126 188.732 364.188L318.26 289.405V232.068Z" fill="#37474F"/>
<path d="M218.602 300.691L285.441 262.11C288.204 260.511 290.45 261.648 290.45 264.648C290.327 266.333 289.808 267.965 288.935 269.412C288.062 270.859 286.861 272.08 285.428 272.975L218.602 311.569C215.839 313.168 213.579 312.032 213.579 309.031C213.704 307.345 214.223 305.711 215.096 304.263C215.968 302.814 217.169 301.59 218.602 300.691Z" fill="#FFD255"/>
<path d="M232.293 313.472C232.306 313.458 232.321 313.447 232.338 313.439C232.355 313.432 232.374 313.428 232.393 313.428C232.411 313.428 232.43 313.432 232.447 313.439C232.464 313.447 232.479 313.458 232.492 313.472C232.551 313.562 232.579 313.669 232.571 313.776V321.297C232.572 322.024 232.51 322.749 232.386 323.465C232.277 324.119 232.09 324.758 231.831 325.368C231.594 325.927 231.283 326.452 230.906 326.928C230.534 327.369 230.086 327.741 229.584 328.025C229.191 328.281 228.732 328.419 228.262 328.421C228.083 328.407 227.908 328.356 227.749 328.272C227.59 328.188 227.45 328.072 227.337 327.932C227.047 327.543 226.856 327.09 226.782 326.61C226.655 325.971 226.598 325.319 226.61 324.667V317.134C226.61 317.002 226.637 316.871 226.689 316.75C226.722 316.641 226.792 316.548 226.888 316.486L227.72 315.997C227.747 315.972 227.783 315.958 227.819 315.958C227.856 315.958 227.892 315.972 227.919 315.997C227.98 316.086 228.008 316.193 227.998 316.301V323.729C227.988 324.138 228.028 324.546 228.117 324.945C228.153 325.2 228.264 325.439 228.434 325.632C228.493 325.703 228.569 325.759 228.654 325.796C228.738 325.833 228.831 325.849 228.923 325.844C229.149 325.829 229.368 325.756 229.557 325.632C229.793 325.492 230.006 325.318 230.192 325.117C230.398 324.879 230.567 324.612 230.694 324.324C230.843 323.985 230.954 323.63 231.025 323.266C231.102 322.83 231.137 322.388 231.13 321.945V314.503C231.134 314.371 231.166 314.24 231.223 314.12C231.255 314.011 231.326 313.917 231.421 313.856L232.293 313.472Z" fill="#FAFAFA"/>
<path d="M237.475 320.583C237.482 320.486 237.459 320.389 237.409 320.306C237.377 320.271 237.338 320.245 237.294 320.229C237.251 320.213 237.204 320.207 237.157 320.213C236.995 320.191 236.831 320.191 236.668 320.213L235.902 320.358C235.654 320.42 235.396 320.42 235.148 320.358C234.954 320.296 234.787 320.17 234.673 320.002C234.543 319.787 234.458 319.549 234.422 319.301C234.293 318.593 234.293 317.868 234.422 317.16C234.521 316.754 234.662 316.36 234.844 315.984C235.025 315.608 235.247 315.253 235.505 314.926C235.755 314.614 236.06 314.35 236.404 314.146C236.682 313.977 236.993 313.869 237.316 313.829C237.551 313.805 237.787 313.856 237.99 313.975C238.184 314.093 238.336 314.268 238.426 314.477C238.533 314.723 238.591 314.988 238.598 315.257C238.612 315.389 238.584 315.523 238.519 315.64C238.486 315.749 238.416 315.843 238.321 315.904L237.528 316.367C237.491 316.388 237.45 316.399 237.409 316.399C237.367 316.399 237.326 316.388 237.29 316.367L237.118 316.235C237.05 316.181 236.967 316.149 236.88 316.142C236.71 316.161 236.547 316.22 236.404 316.314C236.197 316.439 236.013 316.6 235.862 316.79C235.702 316.998 235.618 317.254 235.624 317.517C235.606 317.617 235.606 317.72 235.624 317.821C235.65 317.858 235.683 317.889 235.722 317.912C235.761 317.935 235.804 317.949 235.849 317.953C235.993 317.977 236.141 317.977 236.285 317.953L237.025 317.821C237.647 317.702 238.069 317.821 238.347 318.164C238.639 318.654 238.773 319.222 238.73 319.79C238.727 320.183 238.674 320.574 238.572 320.953C238.467 321.365 238.316 321.764 238.122 322.143C237.928 322.534 237.684 322.898 237.395 323.227C237.122 323.548 236.795 323.82 236.431 324.033C236.14 324.219 235.809 324.332 235.466 324.363C235.217 324.372 234.972 324.303 234.765 324.165C234.561 324.026 234.404 323.827 234.316 323.597C234.209 323.346 234.155 323.076 234.157 322.804C234.145 322.667 234.172 322.529 234.236 322.407C234.269 322.298 234.339 322.204 234.435 322.143L235.228 321.68C235.334 321.68 235.413 321.614 235.466 321.68L235.637 321.865C235.673 321.905 235.715 321.937 235.763 321.959C235.811 321.982 235.862 321.995 235.915 321.997C236.101 321.998 236.282 321.938 236.431 321.826C236.669 321.69 236.884 321.516 237.065 321.31C237.155 321.201 237.23 321.081 237.29 320.953C237.383 320.848 237.447 320.721 237.475 320.583Z" fill="#FAFAFA"/>
<path d="M240.172 317.002C240.17 316.315 240.227 315.629 240.344 314.953C240.454 314.316 240.627 313.692 240.86 313.089C241.054 312.549 241.321 312.038 241.653 311.569C241.93 311.167 242.29 310.828 242.71 310.578C243.016 310.372 243.39 310.292 243.754 310.353C244.077 310.428 244.36 310.621 244.547 310.895C244.796 311.254 244.971 311.658 245.063 312.085C245.189 312.64 245.252 313.207 245.248 313.777V314.596C245.252 314.734 245.22 314.871 245.155 314.993C245.123 315.101 245.052 315.195 244.957 315.257L241.52 317.253C241.512 317.485 241.544 317.718 241.613 317.94C241.664 318.09 241.756 318.222 241.877 318.323C241.986 318.409 242.122 318.452 242.261 318.442C242.42 318.423 242.574 318.369 242.71 318.284C242.91 318.175 243.089 318.032 243.239 317.861C243.374 317.708 243.489 317.54 243.582 317.358C243.639 317.254 243.701 317.153 243.767 317.054C243.824 316.987 243.891 316.929 243.966 316.883L244.785 316.407C244.813 316.384 244.848 316.372 244.884 316.372C244.92 316.372 244.955 316.384 244.983 316.407C245.018 316.448 245.043 316.497 245.057 316.55C245.071 316.602 245.073 316.657 245.063 316.711C245.048 316.968 244.995 317.222 244.904 317.464C244.79 317.831 244.639 318.185 244.455 318.521C244.248 318.908 244 319.272 243.715 319.605C243.43 319.946 243.091 320.236 242.71 320.464C242.398 320.669 242.024 320.758 241.653 320.716C241.328 320.637 241.044 320.439 240.86 320.16C240.599 319.76 240.424 319.31 240.344 318.839C240.224 318.234 240.166 317.618 240.172 317.002ZM242.71 312.785C242.507 312.895 242.331 313.048 242.195 313.235C242.048 313.42 241.928 313.624 241.838 313.843C241.745 314.061 241.67 314.286 241.613 314.517C241.566 314.726 241.536 314.938 241.52 315.151L243.847 313.829C243.833 313.647 243.807 313.466 243.767 313.287C243.747 313.128 243.683 312.977 243.582 312.851C243.543 312.794 243.492 312.746 243.433 312.71C243.374 312.673 243.307 312.649 243.239 312.64C243.051 312.624 242.863 312.675 242.71 312.785Z" fill="#FAFAFA"/>
<path d="M249.396 309.098C248.996 309.326 248.68 309.679 248.498 310.102C248.292 310.66 248.198 311.253 248.22 311.847V316.618C248.222 316.755 248.195 316.89 248.141 317.015C248.108 317.124 248.038 317.217 247.942 317.279L247.163 317.728C247.15 317.743 247.135 317.754 247.118 317.761C247.101 317.769 247.082 317.773 247.063 317.773C247.045 317.773 247.026 317.769 247.009 317.761C246.992 317.754 246.977 317.743 246.964 317.728C246.905 317.639 246.877 317.532 246.885 317.424V308.873C246.886 308.737 246.913 308.602 246.964 308.476C247.001 308.37 247.071 308.277 247.163 308.212L247.942 307.763C247.969 307.738 248.005 307.724 248.042 307.724C248.078 307.724 248.114 307.738 248.141 307.763C248.202 307.847 248.23 307.95 248.22 308.053V308.476C248.378 308.122 248.572 307.785 248.802 307.472C249.011 307.182 249.282 306.943 249.595 306.771L250.07 306.494C250.095 306.47 250.128 306.456 250.163 306.456C250.198 306.456 250.231 306.47 250.255 306.494C250.319 306.582 250.352 306.689 250.348 306.798V308.001C250.346 308.138 250.314 308.273 250.255 308.397C250.222 308.502 250.157 308.594 250.07 308.661L249.396 309.098Z" fill="#FAFAFA"/>
<path d="M259.258 308.463C259.271 308.449 259.286 308.437 259.303 308.43C259.32 308.422 259.338 308.418 259.357 308.418C259.376 308.418 259.395 308.422 259.412 308.43C259.429 308.437 259.444 308.449 259.456 308.463C259.516 308.553 259.543 308.659 259.536 308.767V310.088C259.535 310.225 259.508 310.359 259.456 310.485C259.411 310.583 259.343 310.669 259.258 310.736L254.738 313.38C254.711 313.405 254.675 313.419 254.639 313.419C254.602 313.419 254.566 313.405 254.54 313.38C254.48 313.295 254.452 313.192 254.46 313.089V301.193C254.461 301.057 254.488 300.923 254.54 300.797C254.577 300.694 254.646 300.606 254.738 300.546L255.571 300.057C255.597 300.032 255.633 300.018 255.67 300.018C255.706 300.018 255.742 300.032 255.769 300.057C255.828 300.142 255.856 300.244 255.848 300.347V310.406L259.258 308.463Z" fill="#FAFAFA"/>
<path d="M263.315 298.682C263.613 298.476 263.972 298.378 264.333 298.405C264.642 298.429 264.931 298.571 265.139 298.801C265.386 299.084 265.566 299.418 265.668 299.779C265.809 300.247 265.889 300.731 265.906 301.22C265.906 301.326 265.906 301.471 265.906 301.643V302.661C265.906 302.819 265.906 302.965 265.906 303.083C265.88 303.658 265.8 304.229 265.668 304.789C265.546 305.334 265.368 305.865 265.139 306.375C264.93 306.849 264.659 307.293 264.333 307.696C264.054 308.062 263.709 308.371 263.315 308.608C263.009 308.807 262.649 308.904 262.284 308.886C261.979 308.859 261.695 308.718 261.491 308.489C261.238 308.217 261.056 307.885 260.963 307.524C260.821 307.057 260.741 306.572 260.725 306.084C260.725 305.978 260.725 305.846 260.725 305.674V304.656C260.725 304.485 260.725 304.339 260.725 304.233C260.74 303.654 260.815 303.079 260.949 302.515C261.078 301.966 261.259 301.43 261.491 300.916C261.701 300.445 261.967 300.001 262.284 299.594C262.564 299.225 262.915 298.915 263.315 298.682ZM264.558 302.092C264.557 301.8 264.508 301.509 264.412 301.233C264.363 301.065 264.261 300.916 264.121 300.81C264.009 300.735 263.873 300.702 263.738 300.718C263.587 300.746 263.443 300.804 263.315 300.889C263.16 300.975 263.017 301.081 262.892 301.207C262.741 301.364 262.612 301.542 262.509 301.735C262.376 301.976 262.278 302.234 262.218 302.502C262.131 302.84 262.078 303.185 262.06 303.533C262.06 303.639 262.06 303.758 262.06 303.903V304.841C262.06 304.987 262.06 305.106 262.06 305.185C262.072 305.477 262.125 305.767 262.218 306.044C262.266 306.213 262.369 306.362 262.509 306.467C262.564 306.506 262.626 306.533 262.692 306.547C262.758 306.56 262.826 306.56 262.892 306.546C263.042 306.521 263.186 306.467 263.315 306.388C263.468 306.299 263.61 306.193 263.738 306.071C263.886 305.91 264.014 305.732 264.121 305.542C264.249 305.299 264.346 305.042 264.412 304.775C264.499 304.438 264.547 304.092 264.558 303.744C264.566 303.621 264.566 303.498 264.558 303.374V302.449C264.565 302.33 264.565 302.211 264.558 302.092Z" fill="#FAFAFA"/>
<path d="M269.95 306.415C270.119 306.311 270.271 306.182 270.4 306.031C270.559 305.845 270.696 305.641 270.81 305.423C270.941 305.158 271.043 304.878 271.114 304.591C271.195 304.267 271.235 303.934 271.232 303.599V302.925C271.232 303.058 271.1 303.216 271.008 303.401C270.917 303.594 270.811 303.78 270.691 303.956C270.553 304.142 270.402 304.319 270.241 304.485C270.075 304.659 269.884 304.806 269.673 304.921C269.537 305.014 269.384 305.078 269.223 305.11C269.061 305.142 268.895 305.14 268.734 305.106C268.441 305.014 268.188 304.823 268.021 304.564C267.805 304.223 267.649 303.847 267.558 303.454C267.445 302.955 267.383 302.446 267.373 301.934C267.373 301.762 267.373 301.551 267.373 301.3C267.373 301.048 267.373 300.837 267.373 300.652C267.39 300.071 267.451 299.492 267.558 298.921C267.667 298.358 267.821 297.805 268.021 297.268C268.208 296.802 268.447 296.359 268.734 295.947C268.978 295.582 269.298 295.276 269.673 295.048C269.849 294.942 270.041 294.866 270.241 294.823C270.39 294.796 270.542 294.796 270.691 294.823C270.808 294.856 270.916 294.915 271.008 294.995C271.092 295.06 271.168 295.135 271.232 295.22V294.797C271.233 294.661 271.26 294.526 271.312 294.4C271.349 294.297 271.418 294.209 271.51 294.149L272.29 293.687C272.317 293.661 272.352 293.647 272.389 293.647C272.426 293.647 272.461 293.661 272.488 293.687C272.552 293.775 272.584 293.882 272.581 293.99V302.582C272.616 303.868 272.377 305.148 271.88 306.335C271.49 307.269 270.815 308.056 269.95 308.582C269.656 308.765 269.319 308.87 268.972 308.886C268.698 308.903 268.426 308.834 268.193 308.688C267.969 308.521 267.788 308.304 267.664 308.054C267.535 307.752 267.463 307.43 267.452 307.102C267.44 306.965 267.468 306.827 267.532 306.705C267.564 306.596 267.634 306.503 267.73 306.441L268.43 306.045C268.447 306.027 268.466 306.014 268.488 306.004C268.509 305.995 268.532 305.99 268.556 305.99C268.58 305.99 268.603 305.995 268.624 306.004C268.646 306.014 268.665 306.027 268.682 306.045C268.747 306.113 268.804 306.188 268.853 306.269C268.934 306.411 269.067 306.515 269.223 306.56C269.382 306.679 269.62 306.547 269.95 306.415ZM268.708 300.004C268.708 300.357 268.708 300.7 268.708 301.035C268.67 301.563 268.82 302.087 269.131 302.516C269.249 302.617 269.399 302.673 269.554 302.673C269.709 302.673 269.859 302.617 269.977 302.516C270.36 302.266 270.66 301.907 270.836 301.485C271.077 300.933 271.211 300.341 271.232 299.74C271.232 299.542 271.232 299.304 271.232 299.026C271.232 298.749 271.232 298.511 271.232 298.339C271.259 297.866 271.119 297.398 270.836 297.017C270.719 296.909 270.566 296.85 270.406 296.85C270.247 296.85 270.094 296.909 269.977 297.017C269.601 297.266 269.306 297.62 269.131 298.035C268.859 298.656 268.716 299.326 268.708 300.004Z" fill="#FAFAFA"/>
<path d="M275.661 288.268C275.687 288.246 275.719 288.234 275.753 288.234C275.787 288.234 275.82 288.246 275.846 288.268C275.915 288.353 275.948 288.462 275.938 288.572V290.012C275.939 290.15 275.907 290.286 275.846 290.409C275.809 290.508 275.745 290.595 275.661 290.66L274.775 291.175C274.763 291.189 274.748 291.201 274.73 291.208C274.713 291.216 274.695 291.22 274.676 291.22C274.657 291.22 274.639 291.216 274.622 291.208C274.605 291.201 274.589 291.189 274.577 291.175C274.542 291.136 274.516 291.09 274.5 291.04C274.485 290.99 274.479 290.937 274.484 290.885V289.444C274.484 289.306 274.515 289.17 274.577 289.047C274.614 288.944 274.683 288.856 274.775 288.796L275.661 288.268ZM275.885 300.679C275.886 300.81 275.859 300.941 275.806 301.062C275.764 301.166 275.696 301.257 275.608 301.326L274.815 301.776C274.804 301.789 274.79 301.801 274.774 301.808C274.758 301.816 274.74 301.82 274.722 301.82C274.705 301.82 274.687 301.816 274.671 301.808C274.655 301.801 274.641 301.789 274.63 301.776C274.561 301.69 274.527 301.581 274.537 301.472V292.92C274.536 292.782 274.568 292.647 274.63 292.524C274.667 292.421 274.731 292.329 274.815 292.259L275.608 291.81C275.635 291.785 275.67 291.771 275.707 291.771C275.744 291.771 275.779 291.785 275.806 291.81C275.865 291.895 275.893 291.997 275.885 292.101V300.679Z" fill="#FAFAFA"/>
<path d="M282.838 296.647C282.837 296.783 282.81 296.917 282.758 297.043C282.721 297.146 282.652 297.235 282.56 297.294L281.767 297.757C281.742 297.781 281.709 297.795 281.674 297.795C281.64 297.795 281.607 297.781 281.582 297.757C281.513 297.672 281.48 297.562 281.489 297.453V292.801C281.53 292.251 281.43 291.701 281.199 291.201C281.014 290.871 280.723 290.818 280.313 291.056C279.904 291.33 279.601 291.736 279.454 292.206C279.233 292.829 279.126 293.487 279.137 294.149V298.814C279.136 298.95 279.109 299.085 279.057 299.211C279.025 299.32 278.955 299.414 278.859 299.475L278.079 299.925C278.067 299.939 278.052 299.95 278.035 299.958C278.018 299.965 277.999 299.969 277.98 299.969C277.962 299.969 277.943 299.965 277.926 299.958C277.909 299.95 277.894 299.939 277.881 299.925C277.82 299.841 277.792 299.737 277.802 299.634V291.082C277.8 290.946 277.827 290.811 277.881 290.686C277.914 290.577 277.984 290.483 278.079 290.421L278.859 289.972C278.872 289.958 278.887 289.947 278.904 289.939C278.921 289.931 278.94 289.927 278.958 289.927C278.977 289.927 278.996 289.931 279.013 289.939C279.03 289.947 279.045 289.958 279.057 289.972C279.117 290.062 279.145 290.169 279.137 290.276V290.686C279.311 290.283 279.523 289.898 279.771 289.536C279.989 289.202 280.283 288.926 280.63 288.73C280.931 288.51 281.305 288.415 281.674 288.465C281.821 288.502 281.958 288.569 282.076 288.663C282.194 288.756 282.292 288.874 282.362 289.007C282.554 289.365 282.679 289.755 282.732 290.157C282.802 290.683 282.838 291.213 282.838 291.743V296.647Z" fill="#FAFAFA"/>
<path d="M349.504 258.171L336.67 265.572L338.666 247.571C337.12 246.751 336.142 244.755 336.142 241.887C336.142 236.772 339.261 230.838 343.094 228.67C346.927 226.502 350.033 228.802 350.033 233.957C349.953 236.99 349.088 239.95 347.522 242.548L349.504 258.171Z" fill="#455A64"/>
<path d="M349.517 258.171L338.216 251.655L336.67 265.586L349.517 258.171Z" fill="#37474F"/>
<path d="M343.068 228.631C340.273 230.519 338.189 233.287 337.146 236.495L347.496 242.469C349.062 239.871 349.927 236.911 350.007 233.878C350.033 228.763 346.927 226.424 343.068 228.631Z" fill="#37474F"/>
<path d="M280.684 168.691C276.282 166.153 270.216 166.51 263.501 170.383C250.099 178.128 239.234 196.936 239.234 212.414C239.234 220.185 241.984 225.631 246.398 228.142L254.95 233.112C259.338 235.649 265.404 235.279 272.132 231.407C285.534 223.675 296.399 204.853 296.399 189.376C296.399 181.644 293.676 176.159 289.288 173.687" fill="#FFD255"/>
<path d="M272.117 175.366C258.715 183.111 247.851 201.933 247.851 217.397C247.851 232.861 258.715 239.152 272.117 231.407C285.52 223.662 296.397 204.854 296.384 189.376C296.371 173.899 285.506 167.634 272.117 175.366Z" fill="#FFD255"/>
<path d="M285.507 209.705V211.476C282.296 217.207 277.691 222.035 272.118 225.512C266.897 228.513 262.179 228.843 258.716 226.927V223.279C258.893 219.483 259.977 215.786 261.876 212.495C263.776 209.205 266.435 206.417 269.633 204.365L273.162 202.329C276.282 200.532 279.321 200.294 281.701 201.682C284.08 203.07 285.507 205.991 285.507 209.705Z" fill="#FFD255"/>
<path opacity="0.4" d="M280.435 168.616L289.026 173.612C284.638 171.061 278.571 171.418 271.844 175.29C263.067 180.366 255.375 190.186 251.119 200.707L242.515 195.724C246.784 185.15 254.41 175.383 263.239 170.307C269.98 166.448 276.047 166.078 280.435 168.616Z" fill="white"/>
<path opacity="0.2" d="M254.397 232.839L246.163 228.067C241.748 225.556 238.999 220.137 238.999 212.339L247.603 217.335C247.656 224.869 250.194 230.235 254.397 232.839Z" fill="black"/>
<path opacity="0.1" d="M242.541 195.725L251.146 200.707C248.941 205.975 247.757 211.613 247.656 217.322L239.052 212.325C239.158 206.621 240.342 200.989 242.541 195.725Z" fill="black"/>
<path d="M269.051 201.496C268.231 201.505 267.424 201.295 266.712 200.888C265.854 200.316 265.166 199.523 264.722 198.592C264.277 197.661 264.093 196.628 264.187 195.601C264.299 193.193 264.987 190.847 266.192 188.759C267.397 186.671 269.084 184.902 271.113 183.6C271.928 182.949 272.92 182.56 273.96 182.482C275 182.405 276.04 182.643 276.942 183.165C277.844 183.688 278.568 184.471 279.019 185.411C279.469 186.352 279.625 187.407 279.466 188.437C279.352 190.845 278.664 193.19 277.459 195.278C276.254 197.366 274.568 199.135 272.54 200.439C271.491 201.093 270.287 201.458 269.051 201.496Z" fill="white"/>
<path d="M281.701 201.668C279.321 200.28 276.282 200.518 273.162 202.316L269.633 204.351C266.434 206.404 263.773 209.194 261.873 212.487C259.974 215.78 258.891 219.481 258.716 223.278V226.94C262.179 228.856 266.897 228.526 272.118 225.525C277.691 222.048 282.296 217.22 285.507 211.489V209.717C285.507 205.99 284.133 203.069 281.701 201.668Z" fill="white"/>
<path d="M553.42 430.326C553.42 430.326 555.178 414.888 562.857 402.9C570.536 390.912 581.084 383.444 590.93 382.664C600.777 381.885 608.734 390.952 598.2 397.203C587.666 403.455 568.95 409.773 560.333 433.035L553.42 430.326Z" fill="#FFD255"/>
<path opacity="0.1" d="M553.42 430.326C553.42 430.326 555.178 414.888 562.857 402.9C570.536 390.912 581.084 383.444 590.93 382.664C600.777 381.885 608.734 390.952 598.2 397.203C587.666 403.455 568.95 409.773 560.333 433.035L553.42 430.326Z" fill="black"/>
<path d="M556.315 426.308H556.209C556.079 426.255 555.976 426.153 555.922 426.025C555.867 425.896 555.866 425.751 555.918 425.621C566.307 400.046 586.08 389.353 595.094 387.291C595.162 387.275 595.232 387.273 595.3 387.285C595.369 387.296 595.435 387.321 595.493 387.358C595.552 387.395 595.603 387.443 595.644 387.499C595.684 387.556 595.713 387.62 595.729 387.687C595.744 387.755 595.746 387.825 595.735 387.894C595.723 387.962 595.698 388.028 595.662 388.087C595.625 388.146 595.577 388.197 595.52 388.237C595.464 388.277 595.4 388.306 595.332 388.322C586.503 390.357 567.113 400.852 556.896 426.031C556.845 426.136 556.76 426.221 556.654 426.271C556.549 426.322 556.429 426.335 556.315 426.308Z" fill="white"/>
<path d="M608.893 426.612C608.008 428.621 605.813 429.678 603.778 430.498C601.743 431.317 599.522 432.203 598.412 434.106C596.191 437.939 599.839 443.358 597.46 447.072C596.9 447.82 596.194 448.446 595.386 448.914C594.577 449.382 593.682 449.682 592.755 449.795C591.235 450.072 589.688 450.072 588.155 450.204C587.421 450.195 586.688 450.137 585.961 450.033C583.825 449.556 581.592 449.793 579.604 450.707C576.55 452.425 575.639 456.271 573.762 459.245C572.615 460.996 571.104 462.479 569.331 463.592C567.559 464.705 565.567 465.422 563.492 465.695C562.17 465.867 559.527 466.118 558.205 465.338C558.102 465.287 558.004 465.225 557.914 465.153C557.716 464.942 557.478 464.664 557.372 464.519C557.366 464.488 557.366 464.457 557.372 464.426C556.83 462.43 557.716 460.368 557.756 458.307V457.937C557.663 455.544 557.597 453.165 557.544 450.786C557.43 446.38 557.386 441.975 557.412 437.569C557.412 434.714 557.095 431.595 558.311 428.911C559.632 425.951 562.963 425.885 564.219 422.99C564.721 421.827 564.985 420.598 565.474 419.421C566.23 417.711 567.441 416.241 568.974 415.172C570.508 414.102 572.305 413.473 574.171 413.355C579.974 413.064 585.168 417.756 590.971 417.32C592.464 417.201 593.931 416.738 595.412 416.474C600.104 415.589 605.536 416.923 608.179 420.902C608.759 421.721 609.128 422.671 609.253 423.667C609.377 424.663 609.254 425.675 608.893 426.612Z" fill="#FFD255"/>
<path d="M556.79 455.267C556.666 455.23 556.56 455.146 556.496 455.033C556.432 454.919 556.414 454.785 556.447 454.659C564.456 424.603 596.099 420.294 603.54 420.797C603.605 420.8 603.669 420.816 603.728 420.845C603.787 420.873 603.84 420.914 603.883 420.963C603.926 421.012 603.959 421.07 603.98 421.132C604 421.194 604.008 421.26 604.002 421.325C603.989 421.454 603.927 421.572 603.828 421.656C603.73 421.74 603.603 421.782 603.474 421.775C596.217 421.259 565.236 425.502 557.398 454.923C557.362 455.048 557.277 455.154 557.164 455.218C557.051 455.282 556.917 455.3 556.79 455.267Z" fill="white"/>
<path d="M591.989 440.04C591.888 440.026 591.796 439.98 591.724 439.908C588.799 437.373 585.35 435.514 581.624 434.466C577.897 433.417 573.985 433.204 570.167 433.841C570.038 433.853 569.91 433.816 569.807 433.738C569.704 433.66 569.635 433.546 569.612 433.418C569.593 433.289 569.625 433.157 569.701 433.051C569.778 432.945 569.893 432.873 570.022 432.85C574.004 432.187 578.084 432.413 581.968 433.513C585.853 434.612 589.446 436.556 592.491 439.207C592.538 439.253 592.575 439.307 592.6 439.368C592.626 439.428 592.639 439.492 592.639 439.558C592.639 439.623 592.626 439.688 592.6 439.748C592.575 439.808 592.538 439.862 592.491 439.908C592.431 439.979 592.351 440.03 592.261 440.054C592.171 440.078 592.076 440.073 591.989 440.04Z" fill="white"/>
<path d="M480.683 67.3145L484.886 68.927V59.675C484.886 52.3262 490.741 50.5683 497.099 54.2427C503.469 57.9171 508.624 66.8387 508.624 74.1875V75.5092C509.51 75.2385 510.446 75.1716 511.361 75.3135C512.277 75.4554 513.148 75.8024 513.911 76.3287C516.325 77.9028 518.334 80.0242 519.774 82.5206C521.214 85.017 522.044 87.818 522.198 90.6958V91.3038L528.067 94.6874C529.654 95.7238 530.976 97.1193 531.924 98.761C532.872 100.403 533.421 102.245 533.525 104.138C533.525 107.627 531.08 109.041 528.067 107.297L480.683 79.9238C479.094 78.8898 477.772 77.4946 476.826 75.8521C475.879 74.2097 475.335 72.3666 475.237 70.4734C475.237 66.9973 477.656 65.5831 480.683 67.3145Z" fill="#E6E6E6"/>
<path d="M536.975 59.9919L544.601 64.3933C544.56 64.06 544.538 63.7246 544.535 63.3888V61.1815C544.535 57.2163 547.284 55.6567 550.695 57.6261C552.16 58.5232 553.413 59.7272 554.369 61.155C554.924 56.2118 558.81 54.3746 563.515 57.0841C566.204 58.8337 568.443 61.1922 570.051 63.9685C571.658 66.7448 572.589 69.8607 572.767 73.0638V76.3681C572.801 77.6883 572.535 78.9991 571.987 80.2011L578.332 83.849C579.32 84.5048 580.142 85.3833 580.729 86.4139C581.317 87.4446 581.655 88.5987 581.715 89.7836C581.715 91.9644 580.182 92.85 578.292 91.7662L536.975 67.9751C535.976 67.3241 535.145 66.4458 534.55 65.4121C533.955 64.3783 533.613 63.2185 533.552 62.0274C533.552 59.7937 535.085 58.9081 536.975 59.9919Z" fill="#E6E6E6"/>
<path d="M507.451 260.59C501.899 269.975 496.56 278.13 492.806 282.042C485.682 285.346 468.949 290.448 462.406 291.294C461.257 291.44 460.093 291.168 459.128 290.527C456.551 288.836 454.555 288.558 451.846 287.62C449.718 286.893 448.819 285.875 448.422 286.298C448.013 286.778 447.807 287.399 447.849 288.029C447.891 288.658 448.177 289.247 448.647 289.668C449.664 290.634 450.791 291.477 452.004 292.179C449.102 292.899 446.075 292.954 443.149 292.338C437.479 290.845 434.809 293.567 438.642 299.726C439.963 301.921 445.409 305.45 456.353 304.498C460.257 304.287 464.145 303.846 467.997 303.176C478.492 300.929 490.162 298.762 497.339 296.568C500.009 295.518 502.398 293.862 504.318 291.73C516.385 277.971 520.39 268.164 525.677 259.255L525.228 244.716C516.663 244.426 512.09 252.739 507.451 260.59Z" fill="#FFA8A7"/>
<path d="M526.694 244.426C524.21 244.077 521.679 244.413 519.372 245.399C517.066 246.384 515.073 247.981 513.609 250.017C507.74 257.537 497.352 275.592 497.352 275.592C497.352 275.592 500.748 284.646 509.921 286.166L524.658 266.261C524.658 266.261 531.637 252.436 526.694 244.426Z" fill="#455A64"/>
<path d="M558.561 447.362H548.952V464.492H558.561V447.362Z" fill="#FFA8A7"/>
<path d="M525.254 446.451L515.658 446.795L515.169 428.661L525.254 428.317V446.451Z" fill="#FFA8A7"/>
<path d="M559.909 299.079C559.909 308.622 558.508 385.507 558.508 385.507C558.72 388.256 561.152 393.331 560.663 403.892C559.936 418.233 558.971 455.928 558.971 455.928C557.321 456.772 555.501 457.23 553.649 457.267C551.796 457.303 549.96 456.918 548.278 456.14C548.278 456.14 540.48 403.271 538.762 389.115C537.255 376.704 533.396 335.625 533.396 335.625L528.201 384.185C529.302 389.395 529.702 394.729 529.391 400.046C528.941 406.654 525.849 440.861 525.849 440.861C524.188 441.84 522.327 442.428 520.406 442.582C518.485 442.735 516.554 442.449 514.759 441.746C514.759 441.746 509.287 390.199 509.182 384.145C509.049 377.272 512.38 299 512.38 299L559.909 299.079Z" fill="#37474F"/>
<path d="M548.952 459.549V458.122C548.027 458.531 545.899 467.017 542.079 470.638C539.052 473.52 534.929 476.837 533.871 480.049C532.814 483.261 539.621 485.23 542.462 484.715C545.74 484.107 551.45 481.688 552.878 479.428C554.305 477.168 554.979 473.89 556.142 472.251C557.305 470.612 559.989 468.788 560.61 466.885C560.804 465.104 560.619 463.302 560.068 461.598C559.618 459.827 559.143 457.884 558.561 458.056V459.139C557.206 460.251 555.503 460.85 553.75 460.831C552.349 460.95 548.939 460.659 548.952 459.549Z" fill="#263238"/>
<path d="M515.553 443.702C515.051 443.702 514.641 444.455 513.544 445.697C511.913 447.413 510.005 448.843 507.9 449.927C504.305 451.804 497.326 454.685 494.141 456.179C492.158 457.104 492.251 459.589 494.3 461.003C496.348 462.417 501.278 463.435 507.2 462.06C510.425 461.307 514.628 458.201 517.298 458.373C519.967 458.545 524.924 458.492 526.893 457.051C528.863 455.61 528.07 452.623 527.514 450.046C526.906 447.217 526.193 442.816 525.254 443.014V444.006C524.104 445.83 518.143 446.57 515.606 445.235L515.553 443.702Z" fill="#263238"/>
<path d="M533.395 335.624C528.397 333.988 523.827 331.256 520.02 327.628C520.02 327.628 522.663 332.664 530.276 337.356L528.637 380.722L533.395 335.624Z" fill="#263238"/>
<path d="M554.544 245.827C554.544 245.827 562.474 247.651 561.906 261.978L560.253 284.778V319.011C553.195 327.02 521.923 326.439 511.151 318.376C511.151 318.376 512.367 277.865 513.094 262.269C513.61 251.193 516.161 245.615 527.052 244.399L540.441 244.981L554.544 245.827Z" fill="#FFD255"/>
<path d="M544.444 216.062C544.49 217.98 544.155 219.888 543.46 221.676C542.765 223.465 541.722 225.098 540.393 226.481C539.063 227.865 537.473 228.971 535.714 229.737C533.955 230.503 532.062 230.914 530.143 230.944C522.213 230.944 517.561 224.098 515.842 216.062C512.67 201.351 522.239 201.166 530.143 201.166C534.015 201.246 537.696 202.86 540.378 205.653C543.06 208.446 544.522 212.19 544.444 216.062Z" fill="#263238"/>
<path d="M551.741 222.076C551.741 222.076 549.547 232.809 548.661 234.58C548.104 235.646 547.157 236.455 546.018 236.84L546.176 229.293L551.741 222.076Z" fill="#263238"/>
<path d="M548.978 206.704C548.978 206.704 550.551 206.308 552.23 208.925C553.657 211.158 553.987 216.181 551.741 222.142L547.604 222.644L548.978 206.704Z" fill="#263238"/>
<path d="M550.498 208.884L555.573 208.976C555.608 208.648 555.575 208.317 555.475 208.002C555.376 207.688 555.212 207.397 554.995 207.149C554.778 206.901 554.511 206.7 554.213 206.56C553.914 206.419 553.59 206.342 553.26 206.333C552.567 206.343 551.901 206.609 551.391 207.08C550.881 207.551 550.563 208.193 550.498 208.884Z" fill="#263238"/>
<path d="M551.119 207.681L554.873 204.073C554.657 203.818 554.39 203.611 554.089 203.464C553.789 203.317 553.461 203.234 553.127 203.221C552.793 203.207 552.46 203.263 552.148 203.385C551.837 203.506 551.554 203.691 551.318 203.928C550.82 204.414 550.523 205.071 550.486 205.766C550.45 206.461 550.675 207.145 551.119 207.681Z" fill="#263238"/>
<path d="M546.361 222.577C547.194 223.093 548.37 221.44 549.401 220.317C550.432 219.193 553.63 218.163 555.296 221.81C556.961 225.458 554.119 229.067 551.74 230.256C547.471 232.371 546.123 229.291 546.123 229.291L545.766 246.289C539.765 255.541 526.152 255.25 531.055 245.839V240.671C529.038 241.007 526.99 241.113 524.949 240.989C521.618 240.46 519.53 237.724 518.512 233.97C516.9 227.943 516.278 223.079 517.653 211.223C519.16 198.244 533.672 198.099 541.444 203.293C549.216 208.488 546.361 222.577 546.361 222.577Z" fill="#FFA8A7"/>
<path d="M528.28 209.202C531.743 208.858 535.167 208.144 538.643 207.88C539.392 207.789 540.152 207.825 540.89 207.986C543.533 208.713 543.216 211.806 543.639 213.96C544.366 217.687 544.961 223.992 546.362 224.018C546.784 224.018 548.371 221.282 549.401 220.304C549.968 219.462 550.289 218.477 550.327 217.463C550.591 215.929 550.723 214.357 550.842 212.797C550.948 211.475 551.08 210.153 551.08 208.832C551.14 207.338 551.021 205.843 550.723 204.378C550.392 203.131 549.756 201.987 548.873 201.047L548.608 200.756C546.866 198.935 544.752 197.51 542.41 196.579C539.039 195.317 535.505 194.547 531.915 194.293C528.33 194.039 524.761 193.598 521.222 192.971C521.02 192.912 520.804 192.912 520.601 192.971C520.458 193.051 520.336 193.165 520.249 193.303C520.161 193.442 520.109 193.6 520.099 193.764C519.954 194.585 520.045 195.431 520.36 196.203C520.676 196.975 521.204 197.642 521.883 198.126C519.491 198.311 516.742 197.068 514.442 196.434C514.256 196.355 514.056 196.314 513.854 196.314C513.652 196.314 513.452 196.355 513.266 196.434C513.035 196.595 512.871 196.835 512.803 197.108C512.636 197.729 512.613 198.38 512.737 199.011C512.947 200.924 513.659 202.748 514.799 204.298C516.58 206.618 519.097 208.263 521.936 208.964C524.026 209.367 526.166 209.447 528.28 209.202Z" fill="#263238"/>
<path d="M531.069 240.673C531.069 240.673 538.497 239.113 541.088 237.673C542.631 236.828 543.884 235.539 544.683 233.972C544.293 235.546 543.597 237.028 542.634 238.333C540.744 240.871 531.069 242.721 531.069 242.721V240.673Z" fill="#F28F8F"/>
<path d="M532.853 220.635C532.838 221.043 532.986 221.44 533.263 221.74C533.54 222.039 533.925 222.217 534.333 222.234C534.657 222.261 534.981 222.189 535.263 222.028C535.546 221.867 535.773 221.625 535.915 221.333C536.057 221.041 536.108 220.713 536.06 220.391C536.013 220.07 535.869 219.77 535.648 219.532C535.428 219.293 535.14 219.127 534.823 219.055C534.507 218.983 534.175 219.008 533.873 219.127C533.571 219.246 533.312 219.454 533.13 219.723C532.948 219.992 532.851 220.31 532.853 220.635Z" fill="#263238"/>
<path d="M535.232 214.224L538.418 216.061C538.65 215.608 538.702 215.084 538.565 214.594C538.428 214.104 538.111 213.684 537.678 213.418C537.466 213.299 537.233 213.226 536.992 213.202C536.751 213.179 536.507 213.206 536.277 213.282C536.047 213.358 535.836 213.481 535.656 213.643C535.476 213.805 535.332 214.003 535.232 214.224Z" fill="#263238"/>
<path d="M531.73 231.354L528.333 232.675C528.401 232.908 528.517 233.125 528.672 233.311C528.828 233.498 529.02 233.65 529.237 233.759C529.454 233.868 529.691 233.932 529.933 233.945C530.176 233.959 530.418 233.922 530.646 233.838C531.108 233.639 531.478 233.272 531.679 232.81C531.88 232.349 531.898 231.828 531.73 231.354Z" fill="#F28F8F"/>
<path d="M519.187 215.585L522.095 213.259C521.964 213.056 521.793 212.883 521.591 212.75C521.389 212.618 521.162 212.53 520.924 212.491C520.686 212.452 520.442 212.464 520.209 212.526C519.976 212.588 519.758 212.698 519.57 212.849C519.182 213.179 518.928 213.64 518.857 214.144C518.786 214.649 518.904 215.162 519.187 215.585Z" fill="#263238"/>
<path d="M520.469 220.198C520.492 220.488 520.599 220.764 520.777 220.993C520.954 221.223 521.195 221.396 521.469 221.491C521.743 221.586 522.039 221.599 522.32 221.528C522.602 221.458 522.857 221.307 523.054 221.094C523.251 220.882 523.382 220.616 523.43 220.33C523.479 220.044 523.443 219.75 523.328 219.484C523.212 219.218 523.021 218.991 522.779 218.832C522.536 218.672 522.253 218.587 521.963 218.586C521.759 218.593 521.558 218.64 521.372 218.725C521.186 218.81 521.019 218.931 520.88 219.081C520.741 219.231 520.633 219.407 520.563 219.598C520.492 219.79 520.46 219.994 520.469 220.198Z" fill="#263238"/>
<path d="M528.439 218.956L528.268 228.354L522.928 227.138L528.439 218.956Z" fill="#F28F8F"/>
<path d="M401.633 297.664L409.92 292.88L413.198 288.901L404.924 293.686L401.633 297.664Z" fill="#FFD255"/>
<path opacity="0.4" d="M401.633 297.664L409.92 292.88L413.198 288.901L404.924 293.686L401.633 297.664Z" fill="black"/>
<path d="M424.168 310.67L432.455 305.885L439.368 299.766L431.094 304.537L424.168 310.67Z" fill="#FFD255"/>
<path opacity="0.4" d="M424.168 310.67L432.455 305.885L439.368 299.766L431.094 304.537L424.168 310.67Z" fill="black"/>
<path d="M494.562 327.179C496.522 329.806 497.708 332.928 497.986 336.193C496.035 333.562 494.85 330.442 494.562 327.179ZM513.82 327.43C511.031 308.464 500.841 289.708 488.707 282.69C482.878 279.32 477.486 279.201 473.164 281.725L465.366 286.219L464.929 286.483C464.582 286.675 464.247 286.886 463.925 287.118C463.284 287.559 462.683 288.054 462.127 288.598L461.863 288.849C461.625 289.087 461.374 289.365 461.149 289.629C460.925 289.893 460.581 290.303 460.317 290.66C459.756 291.399 459.248 292.176 458.797 292.986C458.559 293.396 458.334 293.832 458.123 294.308L390.014 255L381.74 259.771V265.058L382.441 265.455L383.102 265.838V266.896L381.78 267.675V270.742L391.785 291.889L401.672 297.612L404.963 293.647L413.686 298.868L418.696 307.446L424.22 310.631L431.133 304.499L439.618 309.402L442.473 321.179L456.735 329.426C457.44 332.423 458.322 335.376 459.378 338.269C459.471 338.559 459.59 338.863 459.709 339.194C464.44 351.618 471.961 362.258 480.446 367.161C481.463 367.764 482.529 368.282 483.632 368.708C484.215 368.94 484.811 369.138 485.416 369.303C485.945 369.444 486.474 369.563 487.002 369.659C488.671 369.964 490.382 369.964 492.051 369.659L492.738 369.488C493.067 369.421 493.39 369.329 493.703 369.21L494.444 368.919C494.705 368.825 494.958 368.705 495.197 368.562C495.441 368.457 495.68 368.338 495.911 368.206L496.254 367.994C496.317 367.974 496.375 367.942 496.426 367.902C498.316 366.818 502.969 364.121 504.237 363.408C510.529 359.76 514.6 350.534 514.6 337.489C514.589 334.121 514.329 330.759 513.82 327.43Z" fill="#E53D3D"/>
<path d="M492.145 343.184C488.867 341.294 486.224 335.69 486.224 330.668C486.224 325.645 488.867 323.094 492.145 324.971C495.423 326.848 498.053 332.465 498.053 337.501C498.053 342.537 495.41 345.074 492.145 343.184ZM505.534 332.201C502.759 313.247 492.568 294.479 480.422 287.474C474.791 284.222 469.583 283.984 465.354 286.218L464.918 286.483C464.57 286.674 464.235 286.886 463.913 287.117C463.273 287.558 462.671 288.053 462.116 288.597L461.851 288.848C461.613 289.086 461.362 289.364 461.138 289.628C460.913 289.893 460.569 290.302 460.305 290.659C459.744 291.398 459.236 292.175 458.785 292.985C458.547 293.395 458.322 293.831 458.111 294.307C456.879 296.862 455.99 299.568 455.467 302.356L381.729 259.771V265.057L382.429 265.454L383.09 265.837V266.895L381.768 267.674V270.741L391.774 291.888L401.66 297.611L404.951 293.646L413.675 298.867L418.684 307.445L424.209 310.63L431.121 304.498L439.607 309.401L442.462 321.178L456.736 329.425C457.441 332.423 458.324 335.375 459.38 338.268C459.472 338.558 459.591 338.862 459.71 339.193C464.442 351.617 471.963 362.257 480.448 367.16C481.465 367.764 482.53 368.281 483.633 368.707C484.216 368.939 484.812 369.137 485.418 369.302C485.946 369.443 486.475 369.562 487.004 369.659C488.673 369.963 490.383 369.963 492.053 369.659L492.74 369.487C493.069 369.42 493.391 369.328 493.705 369.209L494.445 368.918C494.707 368.824 494.959 368.704 495.198 368.562C495.443 368.456 495.681 368.337 495.912 368.205L496.256 367.993C496.318 367.973 496.376 367.941 496.428 367.901C502.455 364.094 506.327 355.001 506.327 342.272C506.305 338.901 506.04 335.535 505.534 332.201Z" fill="#E53D3D"/>
<path opacity="0.4" d="M498.052 337.489C498.052 342.525 495.409 345.076 492.144 343.186C488.879 341.296 486.223 335.705 486.223 330.669C486.223 325.633 488.866 323.082 492.144 324.972C493.088 325.547 493.91 326.301 494.563 327.193C494.847 330.457 496.032 333.577 497.986 336.207C498.034 336.632 498.056 337.061 498.052 337.489Z" fill="black"/>
<path opacity="0.4" d="M516.899 336.501C516.899 349.546 512.828 358.772 506.536 362.42C505.215 363.134 500.615 365.83 498.725 366.914C504.752 363.107 508.625 354.014 508.625 341.286C508.611 337.919 508.354 334.557 507.858 331.227C505.083 312.274 494.892 293.505 482.745 286.5C477.115 283.249 471.907 283.011 467.678 285.245L475.476 280.751C479.798 278.226 485.191 278.345 491.019 281.716C503.166 288.734 513.356 307.489 516.132 326.456C516.636 329.781 516.892 333.138 516.899 336.501Z" fill="white"/>
<path d="M506.299 342.233C506.299 354.961 502.426 364.054 496.399 367.861C498.289 366.777 502.942 364.081 504.211 363.367C510.502 359.719 514.573 350.493 514.573 337.448C514.573 336.972 514.573 336.483 514.573 335.994L506.299 340.779C506.286 341.294 506.299 341.77 506.299 342.233Z" fill="#E53D3D"/>
<path opacity="0.1" d="M506.9 341.239C506.9 353.967 503.027 363.06 497 366.867C498.89 365.783 503.543 363.087 504.811 362.373C511.103 358.725 515.174 349.499 515.174 336.454C515.174 335.978 515.174 335.489 515.174 335L506.9 339.785C506.886 340.3 506.9 340.776 506.9 341.239Z" fill="black"/>
<path opacity="0.15" d="M455.783 307.763V310.446L381.74 267.701L383.102 266.908V265.798L455.783 307.763Z" fill="black"/>
<path opacity="0.15" d="M455.783 308.873V310.446L381.74 267.702L383.102 266.909V266.896L455.783 308.873Z" fill="black"/>
<path opacity="0.15" d="M487.981 363.381C485.175 363.308 482.438 362.491 480.051 361.015C467.984 354.049 458.163 333.325 458.163 314.821C458.163 304.022 461.428 295.96 467.124 292.669C471.09 290.369 475.782 290.66 480.712 293.501C492.766 300.467 502.586 321.257 502.586 339.761C502.586 350.547 499.322 358.622 493.625 361.9C491.907 362.882 489.96 363.392 487.981 363.381ZM472.847 292.47C471.086 292.46 469.353 292.916 467.825 293.792C462.631 296.792 459.524 304.657 459.524 314.807C459.524 332.889 469.041 353.137 480.751 359.852C485.232 362.495 489.475 362.733 493.004 360.698C498.198 357.697 501.304 349.846 501.304 339.695C501.304 321.601 491.788 301.365 480.091 294.638C477.904 293.308 475.406 292.578 472.847 292.523V292.47Z" fill="black"/>
<path opacity="0.4" d="M460.382 293.308C459.15 295.863 458.261 298.569 457.739 301.357L384 258.771L392.274 254L460.382 293.308Z" fill="white"/>
<path d="M553.896 298.418C557.755 291.109 562.17 274.693 564.364 266.406C567.483 254.642 562.434 247.241 556.698 246.937C553.116 247.492 541.313 290.408 541.313 290.408C539.991 291.452 522.055 300.559 516.293 302.845C515.262 303.235 514.125 303.235 513.094 302.845C510.332 301.841 508.442 302.026 505.732 301.762C503.604 301.55 502.533 300.797 502.256 301.246C502.004 301.804 501.971 302.436 502.165 303.017C502.358 303.597 502.764 304.084 503.3 304.379C504.467 305.058 505.709 305.599 507.001 305.991C504.684 306.694 502.27 307.02 499.85 306.956C494.299 306.837 492.303 309.243 496.612 314.886C499.256 318.402 503.63 319.512 513.398 316.142C516.2 315.164 520.007 313.274 523.562 311.992C530.884 309.348 532.814 309.031 538.392 307.141C546.52 304.392 552.177 301.669 553.896 298.418Z" fill="#FFA8A7"/>
<path d="M554.543 245.826C557.914 246.289 561.152 247.042 563.148 249.791C565.143 252.541 566.743 256.4 564.786 266.908C563.288 274.297 561.284 281.575 558.786 288.69C558.786 288.69 550.935 292.047 542.595 283.535L548.331 261.356C548.331 261.356 549.256 246.936 554.543 245.826Z" fill="#455A64"/>
</svg>
